<?xml version="1.0" encoding="UTF-8" standalone="no"?>
<svg
   xmlns:dc="http://purl.org/dc/elements/1.1/"
   xmlns:cc="http://creativecommons.org/ns#"
   xmlns:rdf="http://www.w3.org/1999/02/22-rdf-syntax-ns#"
   xmlns:svg="http://www.w3.org/2000/svg"
   xmlns="http://www.w3.org/2000/svg"
   id="svg61"
   version="1.1"
   viewBox="0 0 578.366 83.672"
   height="316.241"
   width="2185.95">
  <metadata
     id="metadata65">
    <rdf:RDF>
      <cc:Work
         rdf:about="">
        <dc:format>image/svg+xml</dc:format>
        <dc:type
           rdf:resource="http://purl.org/dc/dcmitype/StillImage" />
        <dc:title />
      </cc:Work>
    </rdf:RDF>
  </metadata>
  <defs
     id="defs35">
    <filter
       color-interpolation-filters="sRGB"
       id="a">
      <feFlood
         id="feFlood2"
         result="flood"
         flood-opacity=".498"
         flood-color="#000" />
      <feComposite
         id="feComposite4"
         result="composite1"
         operator="in"
         in2="SourceGraphic"
         in="flood" />
      <feGaussianBlur
         id="feGaussianBlur6"
         stdDeviation="8"
         result="blur"
         in="composite1" />
      <feOffset
         id="feOffset8"
         result="offset" />
      <feComposite
         id="feComposite10"
         result="composite2"
         in2="offset"
         in="SourceGraphic" />
    </filter>
    <filter
       color-interpolation-filters="sRGB"
       id="b">
      <feFlood
         id="feFlood13"
         result="flood"
         flood-opacity=".498"
         flood-color="#000" />
      <feComposite
         id="feComposite15"
         result="composite1"
         operator="in"
         in2="SourceGraphic"
         in="flood" />
      <feGaussianBlur
         id="feGaussianBlur17"
         stdDeviation="8"
         result="blur"
         in="composite1" />
      <feOffset
         id="feOffset19"
         result="offset" />
      <feComposite
         id="feComposite21"
         result="composite2"
         in2="offset"
         in="SourceGraphic" />
    </filter>
    <filter
       color-interpolation-filters="sRGB"
       id="c">
      <feFlood
         id="feFlood24"
         result="flood"
         flood-color="#000"
         flood-opacity=".498" />
      <feComposite
         id="feComposite26"
         result="composite1"
         operator="in"
         in2="SourceGraphic"
         in="flood" />
      <feGaussianBlur
         id="feGaussianBlur28"
         result="blur"
         stdDeviation="19.9"
         in="composite1" />
      <feOffset
         id="feOffset30"
         result="offset" />
      <feComposite
         id="feComposite32"
         result="composite2"
         in2="offset"
         in="SourceGraphic" />
    </filter>
    <filter
       id="filter943"
       style="color-interpolation-filters:sRGB;">
      <feFlood
         id="feFlood933"
         result="flood"
         flood-color="rgb(0,0,0)"
         flood-opacity="0.498039" />
      <feComposite
         id="feComposite935"
         result="composite1"
         operator="in"
         in2="SourceGraphic"
         in="flood" />
      <feGaussianBlur
         id="feGaussianBlur937"
         result="blur"
         stdDeviation="19.9"
         in="composite1" />
      <feOffset
         id="feOffset939"
         result="offset"
         dy="0"
         dx="0" />
      <feComposite
         id="feComposite941"
         result="composite2"
         operator="over"
         in2="offset"
         in="SourceGraphic" />
    </filter>
  </defs>
  <path
     transform="matrix(0.26458337,0,0,0.26458337,0,-5.4058492e-5)"
     d="M 1533.1855 23.294922 C 1532.1552 23.257882 1531.1528 23.340782 1530.1953 23.539062 C 1528.2804 23.935738 1526.5421 24.791669 1525.1172 26.068359 C 1519.4175 31.175059 1518.0719 40.920339 1518.25 52.810547 C 1518.5757 74.552519 1525.2984 104.10153 1533.8789 125.73633 L 1527.5527 142.12109 L 1500.4395 61.695312 L 1488.2676 65.394531 L 1526.3223 174.93945 L 1540.1426 140.15625 C 1551.0632 164.37597 1566.0917 193.98915 1594.0059 209.23047 C 1599.7615 212.37345 1605.1217 212.602 1609.3789 210.77344 C 1613.6363 208.94487 1616.6358 205.39403 1618.8359 201.68359 C 1623.236 194.26267 1624.6699 185.66797 1624.6699 185.66797 L 1619.252 184.7207 C 1619.252 184.7207 1617.8036 192.63474 1614.1035 198.875 C 1612.2534 201.99513 1609.9011 204.56161 1607.207 205.71875 C 1604.5129 206.87592 1601.3238 206.96057 1596.6426 204.4043 C 1568.856 189.23266 1554.0792 157.90422 1542.9824 133.00977 L 1559.1367 92.355469 L 1593.9609 174.9375 L 1630.0117 65.390625 L 1617.8418 61.691406 L 1592.1113 142.12109 L 1559.1367 60.308594 L 1536.8613 118.01172 C 1529.6069 97.674026 1524.0323 71.57196 1523.75 52.726562 C 1523.5809 41.427359 1525.6993 32.939909 1528.791 30.169922 C 1530.3368 28.784929 1531.9696 28.307986 1534.9395 29.091797 C 1537.9094 29.875577 1542.0296 32.212922 1547.0859 36.609375 L 1550.6934 32.455078 C 1545.2686 27.738196 1540.6228 24.900774 1536.3438 23.771484 C 1535.274 23.489162 1534.2157 23.331963 1533.1855 23.294922 z M 275.8418 26.404297 L 264.09766 38.144531 L 143.86914 158.37695 L 275.83594 290.34375 L 314.15039 252.02539 L 290.66602 228.53906 L 275.83594 243.37109 L 190.8418 158.37695 L 275.8418 73.375 L 290.67383 88.203125 L 314.1582 64.716797 L 275.8418 26.404297 z M 429.05469 49.3125 L 429.05469 175.36914 L 452.42383 175.36914 L 452.42383 123.68164 L 491.31641 123.68164 L 491.31641 101.33984 L 452.42188 101.33984 L 452.42188 71.65625 L 493.19141 71.658203 L 493.19141 49.3125 L 429.05469 49.3125 z M 985.74414 49.3125 L 985.74414 89.226562 C 979.09284 81.893433 968.17766 77.455078 956.23242 77.455078 C 929.79459 77.455078 908.98438 99.63504 908.98438 127.95117 C 908.98438 155.9232 929.62428 177.58398 956.40625 177.58398 C 969.19736 177.58398 978.57885 173.3189 987.62305 163.08789 L 987.62305 175.37109 L 1008.4336 175.36914 L 1008.4336 49.3125 L 985.74414 49.3125 z M 1712.4199 60.460938 C 1680.6784 60.460938 1654.793 86.346977 1654.793 118.08203 C 1654.793 149.82289 1680.6793 175.70792 1712.4199 175.70898 C 1744.002 175.70698 1770.0391 149.819 1770.0391 118.08203 C 1770.0391 86.343778 1744.0037 60.460937 1712.4199 60.460938 z M 1159.8496 61.386719 L 1159.8496 173.24609 L 1171.8652 173.24609 L 1171.8652 90.658203 L 1252.9082 174.93945 L 1252.9082 62.003906 L 1240.8926 65.703125 L 1240.8926 146.2793 L 1159.8496 61.386719 z M 1923.623 61.689453 L 1911.6074 65.386719 L 1911.6074 173.24219 L 1923.623 173.24219 L 1923.623 145.66016 L 1935.3301 132.25781 L 1986.793 174.93945 L 1996.0371 167.38867 L 1943.3457 123.32617 L 1990.334 70.011719 L 1982.1719 62.619141 L 1923.623 129.02539 L 1923.623 61.689453 z M 1291.3594 62.615234 L 1291.3594 173.23828 L 1355.1484 173.23828 L 1358.8457 162.30273 L 1303.3789 162.30273 L 1303.3789 123.62695 L 1345.4375 123.62695 L 1349.1367 112.84375 L 1303.3789 112.84375 L 1303.3789 73.556641 L 1355.1484 73.556641 L 1358.8457 62.615234 L 1291.3594 62.615234 z M 1382.7559 63.082031 L 1379.0586 74.017578 L 1416.8066 74.017578 L 1416.8066 173.23828 L 1428.8242 173.23828 L 1428.8242 74.017578 L 1462.875 74.017578 L 1466.5723 63.082031 L 1382.7559 63.082031 z M 1804.166 63.082031 L 1804.166 173.23828 L 1816.3398 173.23828 L 1816.3398 124.71094 L 1839.2988 124.71094 L 1872.8848 174.9375 L 1882.1289 167.38867 L 1852.0859 123.32617 C 1865.948 120.39614 1876.1172 112.53805 1876.1172 93.896484 C 1876.1172 68.780533 1857.6317 63.083984 1836.6777 63.083984 L 1836.6777 63.082031 L 1804.166 63.082031 z M 1712.4199 71.552734 L 1712.4219 71.552734 L 1712.4238 71.552734 C 1737.6859 71.554938 1757.7148 92.816242 1757.7148 118.08203 C 1757.7148 143.50674 1737.687 164.61523 1712.4199 164.61523 L 1712.4199 164.61328 C 1687.1528 164.61328 1667.1211 143.50674 1667.1211 118.08203 C 1667.1211 92.816242 1687.1482 71.554938 1712.4199 71.552734 z M 1816.3398 74.017578 L 1836.6777 74.017578 C 1851.6237 74.017578 1863.793 78.332224 1863.793 93.892578 C 1863.793 109.29858 1851.6237 113.76953 1836.6777 113.76953 L 1816.3398 113.76953 L 1816.3398 74.017578 z M 550.96484 78.650391 C 522.99285 78.650391 502.86523 99.633394 502.86523 128.46094 C 502.86523 156.94431 522.82274 177.58398 550.45703 177.58398 C 563.7628 177.58398 572.80084 173.3189 581.8418 163.08789 L 581.8418 175.37109 L 602.65039 175.36914 L 602.65039 80.867188 L 581.8418 80.867188 L 581.8418 93.492188 C 573.99407 83.087534 564.61475 78.650391 550.96484 78.650391 z M 648.39648 78.650391 C 630.82594 78.650391 617.00391 91.272343 617.00391 107.48242 C 617.00391 121.29634 624.51482 129.14278 643.27539 135.45312 C 658.45625 140.56703 659.3125 142.10447 659.3125 147.5625 C 659.3125 152.85006 654.87315 156.77539 649.07422 156.77539 C 642.42293 156.77539 638.67237 153.36586 636.45312 145.34766 L 613.5957 145.34766 C 615.98541 167.35024 629.45887 177.58398 648.22266 177.58398 C 667.16013 177.58398 682 163.43028 682 145.35156 L 682 145.34766 C 682 131.36004 675.51507 123.85667 655.72852 117.7168 C 640.20675 112.76691 639.69336 112.42517 639.69336 107.47852 C 639.69336 102.8728 643.44663 99.460938 648.39648 99.460938 C 653.16944 99.460938 656.24412 102.02014 657.26367 106.9668 L 679.43945 106.9668 C 678.58714 89.225882 664.42966 78.650391 648.39648 78.650391 z M 849.6875 78.650391 C 822.22688 78.650391 799.71289 100.99428 799.71289 128.11719 C 799.71289 155.41054 822.22633 177.58398 849.85742 177.58398 C 877.32447 177.58398 900.17969 155.41033 900.17969 128.79883 C 900.17969 100.65636 878.17733 78.650391 849.6875 78.650391 z M 1071.4004 78.650391 C 1043.5957 78.650391 1021.5938 100.65295 1021.5938 128.46094 C 1021.5938 156.08879 1043.938 177.58398 1072.7656 177.58398 C 1091.8703 177.58398 1111.4884 166.84142 1117.7988 147.39258 L 1093.0664 147.39258 C 1087.2675 154.21753 1081.6378 156.77539 1072.2559 156.77539 C 1058.7797 156.77539 1048.8869 149.61301 1046.1562 138.18555 L 1119.334 138.18555 C 1120.0159 134.94032 1120.1855 132.89811 1120.1855 129.48242 C 1120.1855 100.1435 1099.5461 78.650391 1071.4004 78.650391 z M 740.24023 78.654297 C 712.26824 78.654297 690.43164 100.31634 690.43164 128.12109 C 690.43164 155.58171 712.95055 177.58789 740.92578 177.58789 C 762.92837 177.58789 779.98628 165.47449 787.83398 144.32422 L 762.24609 144.32422 C 756.61759 153.02107 750.13385 156.77734 740.75195 156.77734 C 725.05971 156.77734 713.29102 144.49182 713.29102 127.94727 C 713.29102 111.40271 724.54672 99.460937 740.24219 99.460938 C 750.47318 99.460938 757.64358 103.72573 762.24609 112.42578 L 787.83398 112.42578 C 780.50088 90.764112 761.73464 78.654297 740.24023 78.654297 z M 333.70703 79.851562 L 252.81445 160.74414 L 333.70898 241.63672 L 357.19531 218.15234 L 299.78711 160.73828 L 357.18945 103.33789 L 333.70703 79.851562 z M 959.47852 98.267578 C 975.34127 98.267578 987.44922 111.06091 987.44922 127.60547 C 987.44922 143.98279 975.33966 156.77734 959.98828 156.77734 C 944.12237 156.77734 931.84375 143.63886 931.84375 126.92383 C 931.84375 110.89068 943.95675 98.267578 959.47852 98.267578 z M 553.35547 99.460938 C 569.55909 99.460938 581.16016 111.57242 581.16016 128.79883 C 581.16016 144.49427 570.92425 156.77539 553.69141 156.77539 C 537.15009 156.77539 525.7207 145.51721 525.7207 128.97266 C 525.7207 111.74305 537.15185 99.460937 553.35547 99.460938 z M 849.85742 99.460938 C 865.04149 99.460938 877.32422 112.42494 877.32422 128.11719 L 877.32422 128.12109 C 877.32422 143.98058 865.04164 156.77734 850.03125 156.77734 C 834.67671 156.77734 822.56445 143.98096 822.56445 127.77734 C 822.56445 112.25557 835.01749 99.460937 849.85742 99.460938 z M 1071.7383 99.460938 C 1085.7292 99.460938 1094.9419 106.1121 1097.8398 118.22461 L 1045.4707 118.22461 C 1049.0505 106.1121 1058.2653 99.460937 1071.7383 99.460938 z M 706.34961 210.65039 C 686.47785 210.65039 670.21875 226.90947 670.21875 246.78125 C 670.21875 267.03335 686.66773 283.38672 707.20508 283.38672 C 721.56222 283.38672 734.11233 275.40029 739.62695 262.56445 L 724.31836 262.56445 C 718.61355 268.55451 713.67064 270.83594 706.91992 270.83594 C 693.98903 270.83594 683.33984 259.99608 683.33984 246.875 C 683.33984 233.65884 693.22844 223.20117 706.63477 223.20117 C 714.81167 223.20117 720.32604 225.86275 725.08008 232.04297 L 739.62695 232.04297 C 733.44674 218.44649 720.80182 210.65039 706.34961 210.65039 z M 497.72461 211.88672 L 497.72461 282.15039 L 516.45508 282.15039 C 534.52033 282.15039 543.36328 274.06826 543.36328 261.23242 C 543.36328 252.86536 540.32037 247.54211 531.38281 243.83398 C 536.99258 240.88649 539.17969 237.17772 539.17969 230.61719 C 539.17969 224.05665 536.23261 218.54132 531.19336 215.30859 C 527.00984 212.64635 522.63657 211.88672 512.17773 211.88672 L 497.72461 211.88672 z M 567.87891 211.88672 L 567.87891 282.15039 L 605.625 282.15039 L 605.625 269.69531 L 580.9043 269.69531 L 580.9043 253.3418 L 604.58008 253.3418 L 604.58008 240.88477 L 580.9043 240.88477 L 580.9043 224.3418 L 605.625 224.3418 L 605.625 211.88672 L 567.87891 211.88672 z M 762.92773 211.88672 L 762.92773 282.15039 L 775.95312 282.15039 L 775.95312 255.24219 L 794.39844 282.15039 L 810.4668 282.15039 L 791.45117 256.19336 C 804.09684 253.05571 809.80273 245.35416 809.80273 234.41992 C 809.80273 227.2889 807.23384 221.20368 802.38477 217.11523 C 797.82092 213.21694 792.7828 211.88672 783.17969 211.88672 L 762.92773 211.88672 z M 833.08203 211.88672 L 833.08203 282.15039 L 870.82812 282.15039 L 870.82812 269.69531 L 846.10742 269.69531 L 846.10742 253.3418 L 869.78125 253.3418 L 869.78125 240.88477 L 846.10742 240.88477 L 846.10742 224.3418 L 870.82812 224.3418 L 870.82812 211.88672 L 833.08203 211.88672 z M 920.96289 211.88672 L 891.67773 282.15039 L 906.03516 282.15039 L 913.83203 263.99023 L 938.83789 263.99023 L 946.34961 282.15039 L 960.70703 282.15039 L 931.23242 211.88672 L 920.96289 211.88672 z M 973.3457 211.88672 L 973.3457 224.3418 L 986.37109 224.3418 L 986.37109 282.15039 L 999.39844 282.15039 L 999.39844 224.3418 L 1012.4238 224.3418 L 1012.4238 211.88672 L 973.3457 211.88672 z M 1034.0723 211.88672 L 1034.0723 282.15039 L 1047.0977 282.15039 L 1047.0977 211.88672 L 1034.0723 211.88672 z M 1069.9238 211.88672 L 1097.3066 282.15039 L 1107.9551 282.15039 L 1135.1484 211.88672 L 1121.457 211.88672 L 1102.5352 265.32031 L 1083.6152 211.88672 L 1069.9238 211.88672 z M 1157.1094 211.88672 L 1157.1094 282.15039 L 1194.8574 282.15039 L 1194.8574 269.69531 L 1170.1367 269.69531 L 1170.1367 253.3418 L 1193.8105 253.3418 L 1193.8105 240.88477 L 1170.1367 240.88477 L 1170.1367 224.3418 L 1194.8574 224.3418 L 1194.8574 211.88672 L 1157.1094 211.88672 z M 425.42773 213.10938 L 425.42773 229.84375 L 451.38477 250.38086 L 425.42773 270.91797 L 425.42773 287.65234 L 466.02734 255.51562 L 466.02734 245.24609 L 425.42773 213.10938 z M 775.95312 224.3418 L 781.75391 224.3418 C 794.11433 224.3418 796.68164 228.52548 796.68164 234.80078 C 796.68164 242.21704 792.40272 245.44922 782.32422 245.44922 L 775.95312 245.44922 L 775.95312 224.3418 z M 510.75 224.62695 L 516.07422 224.62695 C 522.8249 224.62695 526.1543 226.90872 526.1543 231.75781 C 526.1543 236.79707 522.82523 238.98438 514.93359 238.98438 L 510.75 238.98438 L 510.75 224.62695 z M 926.09766 230.23633 L 933.60938 251.53516 L 918.58594 251.53516 L 926.09766 230.23633 z M 510.75 251.72461 L 516.93164 251.72461 C 525.96427 251.72461 530.2422 254.67197 530.24219 260.94727 C 530.24219 267.0324 526.3445 269.69531 517.2168 269.69531 L 510.75 269.69531 L 510.75 251.72461 z M 1223.7754 269.98047 L 1223.7754 283.27148 L 1262.1426 283.27148 L 1262.1426 269.98047 L 1223.7754 269.98047 z "
     style="font-style:normal;font-variant:normal;font-weight:bold;font-stretch:normal;font-size:23.3919px;line-height:1.25;font-family:'TeX Gyre Adventor';-inkscape-font-specification:'TeX Gyre Adventor Bold';letter-spacing:3.69034px;word-spacing:0px;fill:#0d5ede;fill-opacity:1;stroke:none;stroke-width:1.34502;filter:url(#filter943)"
     id="path898" />
</svg>
