<?xml version="1.0" encoding="UTF-8" standalone="no"?>
<svg
   xmlns:dc="http://purl.org/dc/elements/1.1/"
   xmlns:cc="http://creativecommons.org/ns#"
   xmlns:rdf="http://www.w3.org/1999/02/22-rdf-syntax-ns#"
   xmlns:svg="http://www.w3.org/2000/svg"
   xmlns="http://www.w3.org/2000/svg"
   width="2185.95"
   height="316.241"
   viewBox="0 0 578.366 83.672"
   version="1.1"
   id="svg61">
  <metadata
     id="metadata65">
    <rdf:RDF>
      <cc:Work
         rdf:about="">
        <dc:format>image/svg+xml</dc:format>
        <dc:type
           rdf:resource="http://purl.org/dc/dcmitype/StillImage" />
        <dc:title />
      </cc:Work>
    </rdf:RDF>
  </metadata>
  <defs
     id="defs35">
    <filter
       id="a"
       color-interpolation-filters="sRGB">
      <feFlood
         flood-color="#000"
         flood-opacity=".498"
         result="flood"
         id="feFlood2" />
      <feComposite
         in="flood"
         in2="SourceGraphic"
         operator="in"
         result="composite1"
         id="feComposite4" />
      <feGaussianBlur
         in="composite1"
         result="blur"
         stdDeviation="8"
         id="feGaussianBlur6" />
      <feOffset
         result="offset"
         id="feOffset8" />
      <feComposite
         in="SourceGraphic"
         in2="offset"
         result="composite2"
         id="feComposite10" />
    </filter>
    <filter
       id="b"
       color-interpolation-filters="sRGB">
      <feFlood
         flood-color="#000"
         flood-opacity=".498"
         result="flood"
         id="feFlood13" />
      <feComposite
         in="flood"
         in2="SourceGraphic"
         operator="in"
         result="composite1"
         id="feComposite15" />
      <feGaussianBlur
         in="composite1"
         result="blur"
         stdDeviation="8"
         id="feGaussianBlur17" />
      <feOffset
         result="offset"
         id="feOffset19" />
      <feComposite
         in="SourceGraphic"
         in2="offset"
         result="composite2"
         id="feComposite21" />
    </filter>
    <filter
       id="c"
       color-interpolation-filters="sRGB">
      <feFlood
         flood-opacity=".498"
         flood-color="#000"
         result="flood"
         id="feFlood24" />
      <feComposite
         in="flood"
         in2="SourceGraphic"
         operator="in"
         result="composite1"
         id="feComposite26" />
      <feGaussianBlur
         in="composite1"
         stdDeviation="19.9"
         result="blur"
         id="feGaussianBlur28" />
      <feOffset
         result="offset"
         id="feOffset30" />
      <feComposite
         in="SourceGraphic"
         in2="offset"
         result="composite2"
         id="feComposite32" />
    </filter>
    <filter
       style="color-interpolation-filters:sRGB;"
       id="filter943">
      <feFlood
         flood-opacity="0.498039"
         flood-color="rgb(0,0,0)"
         result="flood"
         id="feFlood933" />
      <feComposite
         in="flood"
         in2="SourceGraphic"
         operator="in"
         result="composite1"
         id="feComposite935" />
      <feGaussianBlur
         in="composite1"
         stdDeviation="19.9"
         result="blur"
         id="feGaussianBlur937" />
      <feOffset
         dx="0"
         dy="0"
         result="offset"
         id="feOffset939" />
      <feComposite
         in="SourceGraphic"
         in2="offset"
         operator="over"
         result="composite2"
         id="feComposite941" />
    </filter>
  </defs>
  <path
     id="path995"
     style="font-weight:700;font-size:47.653px;line-height:1.25;font-family:'TeX Gyre Adventor';-inkscape-font-specification:'TeX Gyre Adventor, Bold';font-variant-ligatures:normal;font-variant-caps:normal;font-variant-numeric:normal;font-feature-settings:normal;text-align:start;letter-spacing:0;word-spacing:0;fill:#ffffff;stroke-width:3.21627;filter:url(#a)"
     d="M 275.8418 26.404297 L 264.09766 38.144531 L 143.86914 158.37695 L 275.83594 290.34375 L 314.15039 252.02539 L 290.66602 228.53906 L 275.83594 243.37109 L 190.8418 158.37695 L 275.8418 73.375 L 290.67383 88.203125 L 314.1582 64.716797 L 275.8418 26.404297 z M 1533.1855 63.808594 C 1532.1552 63.771554 1531.1528 63.854454 1530.1953 64.052734 C 1528.2804 64.44941 1526.5421 65.305341 1525.1172 66.582031 C 1519.4175 71.688731 1518.0719 81.434011 1518.25 93.324219 C 1518.5757 115.06619 1525.2984 144.6152 1533.8789 166.25 L 1527.5527 182.63477 L 1500.4395 102.20898 L 1488.2676 105.9082 L 1526.3223 215.45312 L 1540.1426 180.66992 C 1551.0632 204.88964 1566.0917 234.50282 1594.0059 249.74414 C 1599.7615 252.88712 1605.1217 253.11567 1609.3789 251.28711 C 1613.6363 249.45854 1616.6358 245.90771 1618.8359 242.19727 C 1623.236 234.77635 1624.6699 226.18164 1624.6699 226.18164 L 1619.252 225.23438 C 1619.252 225.23438 1617.8036 233.14841 1614.1035 239.38867 C 1612.2534 242.5088 1609.9011 245.07528 1607.207 246.23242 C 1604.5129 247.38959 1601.3238 247.47424 1596.6426 244.91797 C 1568.856 229.74633 1554.0792 198.41789 1542.9824 173.52344 L 1559.1367 132.86914 L 1593.9609 215.45117 L 1630.0117 105.9043 L 1617.8418 102.20508 L 1592.1113 182.63477 L 1559.1367 100.82227 L 1536.8613 158.52539 C 1529.6069 138.1877 1524.0323 112.08563 1523.75 93.240234 C 1523.5809 81.941031 1525.6993 73.453581 1528.791 70.683594 C 1530.3368 69.298601 1531.9696 68.821658 1534.9395 69.605469 C 1537.9094 70.389249 1542.0296 72.726594 1547.0859 77.123047 L 1550.6934 72.96875 C 1545.2686 68.251868 1540.6228 65.414446 1536.3438 64.285156 C 1535.2739 64.002834 1534.2157 63.845635 1533.1855 63.808594 z M 333.70703 79.851562 L 252.81445 160.74414 L 333.70898 241.63672 L 357.19531 218.15234 L 299.78711 160.73828 L 357.18945 103.33789 L 333.70703 79.851562 z M 429.05469 89.826172 L 429.05469 215.88281 L 452.42383 215.88281 L 452.42383 164.19531 L 491.31641 164.19531 L 491.31641 141.85352 L 452.42188 141.85352 L 452.42188 112.16992 L 493.19141 112.17188 L 493.19141 89.826172 L 429.05469 89.826172 z M 985.74414 89.826172 L 985.74414 129.74023 C 979.09284 122.40711 968.17766 117.96875 956.23242 117.96875 C 929.79459 117.96875 908.98437 140.14872 908.98438 168.46484 C 908.98438 196.43687 929.62428 218.09766 956.40625 218.09766 C 969.19736 218.09766 978.57885 213.83257 987.62305 203.60156 L 987.62305 215.88477 L 1008.4336 215.88281 L 1008.4336 89.826172 L 985.74414 89.826172 z M 1712.4199 100.97461 C 1680.6784 100.97461 1654.793 126.86065 1654.793 158.5957 C 1654.793 190.33656 1680.6793 216.2216 1712.4199 216.22266 C 1744.002 216.22066 1770.0391 190.33267 1770.0391 158.5957 C 1770.0391 126.85745 1744.0037 100.97461 1712.4199 100.97461 z M 1159.8496 101.90039 L 1159.8496 213.75977 L 1171.8652 213.75977 L 1171.8652 131.17188 L 1252.9082 215.45312 L 1252.9082 102.51758 L 1240.8926 106.2168 L 1240.8926 186.79297 L 1159.8496 101.90039 z M 1923.623 102.20312 L 1911.6074 105.90039 L 1911.6074 213.75586 L 1923.623 213.75586 L 1923.623 186.17383 L 1935.3301 172.77148 L 1986.793 215.45312 L 1996.0371 207.90234 L 1943.3457 163.83984 L 1990.334 110.52539 L 1982.1719 103.13281 L 1923.623 169.53906 L 1923.623 102.20312 z M 1291.3594 103.12891 L 1291.3594 213.75195 L 1355.1484 213.75195 L 1358.8457 202.81641 L 1303.3789 202.81641 L 1303.3789 164.14062 L 1345.4375 164.14062 L 1349.1367 153.35742 L 1303.3789 153.35742 L 1303.3789 114.07031 L 1355.1484 114.07031 L 1358.8457 103.12891 L 1291.3594 103.12891 z M 1382.7559 103.5957 L 1379.0586 114.53125 L 1416.8066 114.53125 L 1416.8066 213.75195 L 1428.8242 213.75195 L 1428.8242 114.53125 L 1462.875 114.53125 L 1466.5723 103.5957 L 1382.7559 103.5957 z M 1804.166 103.5957 L 1804.166 213.75195 L 1816.3398 213.75195 L 1816.3398 165.22461 L 1839.2988 165.22461 L 1872.8848 215.45117 L 1882.1289 207.90234 L 1852.0859 163.83984 C 1865.948 160.90981 1876.1172 153.05172 1876.1172 134.41016 C 1876.1172 109.29421 1857.6317 103.59766 1836.6777 103.59766 L 1836.6777 103.5957 L 1804.166 103.5957 z M 1712.416 112.06641 L 1712.4199 112.06641 C 1737.682 112.06861 1757.7109 133.32992 1757.7109 158.5957 C 1757.7109 184.02041 1737.6831 205.12891 1712.416 205.12891 L 1712.416 205.12695 C 1687.1489 205.12695 1667.1172 184.02041 1667.1172 158.5957 C 1667.1172 133.32992 1687.1443 112.06861 1712.416 112.06641 z M 1816.3398 114.53125 L 1836.6777 114.53125 C 1851.6237 114.53125 1863.793 118.8459 1863.793 134.40625 C 1863.793 149.81225 1851.6237 154.2832 1836.6777 154.2832 L 1816.3398 154.2832 L 1816.3398 114.53125 z M 550.96484 119.16406 C 522.99285 119.16406 502.86523 140.14706 502.86523 168.97461 C 502.86523 197.45798 522.82274 218.09766 550.45703 218.09766 C 563.7628 218.09766 572.80084 213.83257 581.8418 203.60156 L 581.8418 215.88477 L 602.65039 215.88281 L 602.65039 121.38086 L 581.8418 121.38086 L 581.8418 134.00586 C 573.99407 123.6012 564.61475 119.16406 550.96484 119.16406 z M 648.39648 119.16406 C 630.82594 119.16406 617.00391 131.78602 617.00391 147.99609 C 617.00391 161.81001 624.51482 169.65646 643.27539 175.9668 C 658.45625 181.08071 659.3125 182.61814 659.3125 188.07617 C 659.3125 193.36373 654.87315 197.28906 649.07422 197.28906 C 642.42293 197.28906 638.67238 193.87953 636.45312 185.86133 L 613.5957 185.86133 C 615.98541 207.86391 629.45887 218.09766 648.22266 218.09766 C 667.16013 218.09766 682 203.94395 682 185.86523 L 682 185.86133 C 682 171.87371 675.51507 164.37034 655.72852 158.23047 C 640.20675 153.28058 639.69336 152.93884 639.69336 147.99219 C 639.69336 143.38647 643.44663 139.97461 648.39648 139.97461 C 653.16944 139.97461 656.24412 142.53381 657.26367 147.48047 L 679.43945 147.48047 C 678.58714 129.73965 664.42966 119.16406 648.39648 119.16406 z M 849.6875 119.16406 C 822.22688 119.16406 799.71289 141.50795 799.71289 168.63086 C 799.71289 195.92421 822.22633 218.09766 849.85742 218.09766 C 877.32447 218.09766 900.17969 195.924 900.17969 169.3125 C 900.17969 141.17003 878.17733 119.16406 849.6875 119.16406 z M 1071.4004 119.16406 C 1043.5957 119.16406 1021.5936 141.16662 1021.5938 168.97461 C 1021.5938 196.60246 1043.938 218.09766 1072.7656 218.09766 C 1091.8703 218.09766 1111.4884 207.35509 1117.7988 187.90625 L 1093.0664 187.90625 C 1087.2675 194.7312 1081.6378 197.28906 1072.2559 197.28906 C 1058.7797 197.28906 1048.8871 190.12668 1046.1562 178.69922 L 1119.334 178.69922 C 1120.0159 175.45399 1120.1855 173.41178 1120.1855 169.99609 C 1120.1855 140.65717 1099.5461 119.16406 1071.4004 119.16406 z M 740.24023 119.16797 C 712.26824 119.16797 690.43164 140.83002 690.43164 168.63477 C 690.43164 196.09539 712.95055 218.10156 740.92578 218.10156 C 762.92837 218.10156 779.98628 205.98816 787.83398 184.83789 L 762.24609 184.83789 C 756.61759 193.53474 750.13385 197.29102 740.75195 197.29102 C 725.05971 197.29102 713.29102 185.00549 713.29102 168.46094 C 713.29102 151.91638 724.54672 139.97461 740.24219 139.97461 C 750.47318 139.97461 757.64358 144.2394 762.24609 152.93945 L 787.83398 152.93945 C 780.50088 131.27779 761.73464 119.16797 740.24023 119.16797 z M 959.47852 138.78125 C 975.34127 138.78125 987.44922 151.57458 987.44922 168.11914 C 987.44922 184.49646 975.33966 197.29102 959.98828 197.29102 C 944.12237 197.29102 931.84375 184.15253 931.84375 167.4375 C 931.84375 151.40435 943.95675 138.78125 959.47852 138.78125 z M 553.35547 139.97461 C 569.55909 139.97461 581.16016 152.08609 581.16016 169.3125 C 581.16016 185.00794 570.92425 197.28906 553.69141 197.28906 C 537.15009 197.28906 525.7207 186.03088 525.7207 169.48633 C 525.7207 152.25672 537.15185 139.97461 553.35547 139.97461 z M 849.85742 139.97461 C 865.04149 139.97461 877.32422 152.93861 877.32422 168.63086 L 877.32422 168.63477 C 877.32422 184.49426 865.04164 197.29102 850.03125 197.29102 C 834.67671 197.29102 822.56445 184.49464 822.56445 168.29102 C 822.56445 152.76925 835.01749 139.97461 849.85742 139.97461 z M 1071.7383 139.97461 C 1085.7292 139.97461 1094.9419 146.62577 1097.8398 158.73828 L 1045.4707 158.73828 C 1049.0505 146.62577 1058.2653 139.97461 1071.7383 139.97461 z "
     transform="matrix(0.26458337,0,0,0.26458337,0,-5.4058492e-5)" />
</svg>
